# xmcd CD database file generated by OrangeCD 6.3
#
# Track frame offsets:
#	150
#	17403
#	35385
#	60051
#	84712
#	97705
#	115412
#	136408
#	148376
#	169429
#
# Disc length: 2581 seconds
#
# Revision: 1
# Processed by: cddbd v1.5.2PL0 Copyright (c) Steve Scherf et al.
# Submitted via: OrangeCD 6.3
#
DISCID=7e0a130a
DTITLE=Sarah DeLeo - I'm In Heaven Tonight
DYEAR=2008
DGENRE=jazz
TTITLE0=Rockin' Robin
TTITLE1=I Feel Pretty
TTITLE2=I'm In Heaven Tonight
TTITLE3=No Moon At All
TTITLE4=On The Street Where You Live
TTITLE5=Stolen Moments
TTITLE6=Let It Rain
TTITLE7=In The Cold, Cold Night
TTITLE8=Sometimes I'm Happy
TTITLE9=You're Getting To Be a Habit With Me
EXTD=
EXTT0=
EXTT1=
EXTT2=
EXTT3=
EXTT4=
EXTT5=
EXTT6=
EXTT7=
EXTT8=
EXTT9=
PLAYORDER=
